<?xml version="1.0" encoding="UTF-8"?>
<svg id="Layer_2" data-name="Layer 2" xmlns="http://www.w3.org/2000/svg" viewBox="0 0 112.14 161.4">
  <defs>
    <style>
      .cls-1 {
        fill: none;
        stroke: #353535;
        stroke-width: 8px;
      }
    </style>
  </defs>
  <g id="Layer_1-2" data-name="Layer 1">
    <path class="cls-1" d="M56.07,4C27.31,4,4,27.31,4,56.07c0,4.94,.7,9.72,1.99,14.25,.79,2.79,1.66,5.56,3.03,8.06,10.68,19.55,47.06,75.66,47.06,75.66,0,0,36.38-56.11,47.06-75.66,1.37-2.5,2.23-5.27,3.03-8.06,1.29-4.53,1.99-9.3,1.99-14.25,0-28.76-23.31-52.07-52.07-52.07Zm0,75c-7.26,0-13.74-3.4-17.95-8.68-3.11-3.92-4.98-8.87-4.98-14.25,0-12.64,10.29-22.93,22.93-22.93s22.93,10.29,22.93,22.93c0,5.38-1.87,10.33-4.98,14.25-4.2,5.28-10.68,8.68-17.95,8.68Z"/>
  </g>
</svg>