<?xml version="1.0" encoding="UTF-8"?>
<svg id="Layer_2" data-name="Layer 2" xmlns="http://www.w3.org/2000/svg" viewBox="0 0 379.25 374.04">
  <defs>
    <style>
      .cls-1 {
        fill: none;
        stroke: #fff;
        stroke-linecap: round;
        stroke-linejoin: round;
        stroke-width: 14.97px;
      }
    </style>
  </defs>
  <g id="Layer_1-2" data-name="Layer 1">
    <g>
      <path class="cls-1" d="M190.72,325.89c-9.47-1.4-15.24,3.03-19.13,11.16-3.22,6.75-6.89,13.3-10.56,19.82-5.03,8.92-12.67,11.81-22.19,8.1-12.55-4.89-25.03-9.97-37.42-15.26-9.42-4.03-12.85-11.43-10.19-21.28,2.28-8.43,4.61-16.84,7.2-25.17,1.86-5.97,.19-10.76-3.96-15.01-1.75-1.79-3.55-3.52-5.27-5.33-4.78-5.04-10.38-6.4-17.04-4.31-7.86,2.46-15.79,4.67-23.71,6.9-11.37,3.2-18.29,.03-22.97-10.61-4.93-11.19-9.78-22.41-14.54-33.67-5.07-12-2.56-18.93,9.07-25.34,6.78-3.73,13.72-7.17,20.44-11,12.8-7.29,12.75-28.31-.09-35.57-7.38-4.17-15-7.94-22.45-12-9.72-5.3-12.69-12.89-8.71-23.2,4.67-12.09,9.51-24.13,14.61-36.05,4-9.36,11.5-12.7,21.38-9.99,8.18,2.25,16.45,4.26,24.42,7.1,9.71,3.45,15.53-1.93,21.51-7.99,5.07-5.14,6.72-10.71,4.26-17.71-2.57-7.29-4.62-14.75-6.85-22.16-3.63-12.09-.41-19.07,11.02-23.86,11.05-4.62,22.09-9.27,33.21-13.73,11.66-4.67,18.94-2.13,25.16,8.66,3.99,6.92,7.69,14.01,11.75,20.89,7.82,13.26,29.16,13.04,36.7-.36,4.04-7.18,7.78-14.52,11.81-21.7,5.04-8.96,12.59-11.87,22.1-8.19,12.56,4.86,25.06,9.92,37.45,15.19,9.28,3.95,12.87,11.67,10.24,21.36-2.28,8.42-4.67,16.83-7.28,25.15-1.58,5.03-.72,9.54,2.49,13.37,2.87,3.42,6.21,6.51,9.66,9.36,4.21,3.47,9.17,3.47,14.22,1.99,8.38-2.45,16.72-5.01,25.15-7.28,9.52-2.56,16.93,.78,20.91,9.62,5.43,12.06,10.7,24.2,15.75,36.42,4.21,10.2,1.36,17.75-8.44,23.21-7.19,4.01-14.39,8.04-21.75,11.74-7.37,3.71-8.93,9.88-8.9,17.44,.04,7.75,1.41,14.34,9.02,18.24,7.77,3.98,15.48,8.12,23.1,12.38,9.01,5.04,11.98,12.58,8.33,22.09-4.74,12.34-9.74,24.59-14.93,36.76-3.9,9.16-11.71,12.64-21.52,9.93-8.17-2.26-16.38-4.45-24.37-7.23-8.18-2.85-13.78,.57-19.33,6.01-5.76,5.64-9.43,11.39-6.28,19.88,2.77,7.47,4.93,15.17,7.21,22.81,3.29,11.05-.09,18.34-10.8,22.9-11.47,4.88-23.03,9.58-34.6,14.22-10.52,4.22-18.51,1.39-24.06-8.38-3.45-6.08-7.08-12.07-10.14-18.34-4.31-8.83-10.59-13.78-20.69-12.01Z"/>
      <path class="cls-1" d="M189.28,271.68c-46.58-.05-84.21-37.6-84.56-84.41-.36-46.95,37.97-84.99,85.54-84.92,46.33,.07,84.3,38.3,84.17,84.77-.12,46.94-38.06,84.61-85.16,84.56Z"/>
    </g>
  </g>
</svg>