<?xml version="1.0" encoding="UTF-8"?>
<svg id="Layer_1" data-name="Layer 1" xmlns="http://www.w3.org/2000/svg" xmlns:xlink="http://www.w3.org/1999/xlink"
    viewBox="0 0 74 59">
    <defs>
        <style>
            .cls-1 {
                fill: url(#linear-gradient);
            }
        </style>
        <linearGradient id="Main_Gradient" x1="22.7" y1="1.88" x2="57.62" y2="62.36" gradientUnits="userSpaceOnUse">
            <stop offset="0" stop-color="#fff" />
            <stop offset="1" stop-color="#000" />
        </linearGradient>
    </defs>
    <path class="cls-1"
        d="M16.62,59c-5.37,0-9.52-1.83-12.46-5.48-2.77-3.83-4.15-9.05-4.15-15.66,0-8.18,1.99-15.14,5.97-20.89C10.13,11.05,16.79,5.4,25.96,0l4.67,6.79c-4.85,2.96-8.57,6.09-11.16,9.4-2.6,3.31-3.89,6.79-3.89,10.44,0,2.09,.26,4,.78,5.74,.52,1.74,2.25,3.83,5.19,6.27,1.56,1.22,2.86,2.7,3.89,4.44,1.21,1.74,1.82,3.57,1.82,5.48,0,3.13-.95,5.66-2.86,7.57-1.9,1.91-4.5,2.87-7.79,2.87Zm43.36,0c-5.37,0-9.52-1.83-12.46-5.48-2.77-3.83-4.15-9.05-4.15-15.66,0-8.18,1.99-15.14,5.97-20.89,4.15-5.92,10.82-11.57,19.99-16.97l4.67,6.79c-4.85,2.96-8.57,6.09-11.16,9.4-2.6,3.31-3.89,6.79-3.89,10.44,0,2.09,.26,4,.78,5.74,.52,1.74,2.25,3.83,5.19,6.27,1.56,1.22,2.86,2.7,3.89,4.44,1.21,1.74,1.82,3.57,1.82,5.48,0,3.13-.95,5.66-2.86,7.57-1.9,1.91-4.5,2.87-7.79,2.87Z" />
</svg>