<?xml version="1.0" encoding="utf-8"?>
<!-- Generator: Adobe Illustrator 26.5.0, SVG Export Plug-In . SVG Version: 6.00 Build 0)  -->
<svg version="1.1" id="Layer_1" xmlns="http://www.w3.org/2000/svg" xmlns:xlink="http://www.w3.org/1999/xlink" x="0px" y="0px"
	 viewBox="0 0 1920 1920" style="enable-background:new 0 0 1920 1920;" xml:space="preserve">
<style type="text/css">
	.st0{fill:none;}
	.st1{fill:#FFFFFF;}
	.st2{fill:#F2AE66;}
	.st3{fill:none;stroke:#292929;stroke-width:10;stroke-linecap:round;stroke-linejoin:round;}
	.st4{fill:#4D4D4D;stroke:#292929;stroke-width:10;stroke-linecap:round;stroke-linejoin:round;}
	.st5{fill:#87DDF1;stroke:#292929;stroke-width:10;stroke-linecap:round;stroke-linejoin:round;}
	.st6{fill:#FFFFFF;stroke:#292929;stroke-width:10;stroke-linecap:round;stroke-linejoin:round;}
	.st7{fill:#76564A;}
	.st8{fill:url(#Pinky_L_00000082357692610518626180000014374891025766305678_);}
	.st9{fill:url(#Pinky_R_00000034070845972120718850000000127238671666194316_);}
	
		.st10{clip-path:url(#Eye_Matte_00000058585171484986518300000016911381421973107119_);fill:#4D4D4D;stroke:#292929;stroke-width:10;stroke-miterlimit:10;}
	
		.st11{clip-path:url(#Eye_Matte-2_00000088821619203123658390000006387486209579862921_);fill:#4D4D4D;stroke:#292929;stroke-width:10;stroke-miterlimit:10;}
	.st12{fill:none;stroke:#292929;stroke-width:6;stroke-linecap:round;stroke-linejoin:round;}
	.st13{fill:#292929;}
</style>
<g id="Margin">
	<rect class="st0" width="1920" height="1920"/>
</g>
<g>
	<g id="BODY">
		<g id="Tail">
			<path id="Tail_Matte" class="st1" d="M723,1403c-28-7-85-10-117,8s-85,36.2-99,55.1s40,63.9,69,77.9s176,13,220-62
				C813.7,1451.8,751,1410,723,1403z"/>
			<path id="Taill_Color" class="st2" d="M562,1432c0,0,51.3-28.3,76.2-31.7s57.3-3.7,70.8,6.7s54,31,28,41s-68.1,32-116,35
				C556,1487,562,1432,562,1432z"/>
			<path id="Tail_Outline" class="st3" d="M723,1403c-28-7-85-10-117,8s-85,36.2-99,55.1s40,63.9,69,77.9s176,13,220-62
				C813.7,1451.8,751,1410,723,1403z"/>
		</g>
		<g id="Body_BG">
			<path id="Body_Matte" class="st1" d="M669,1497.1c0,0,3-65,9-99.1c10-57,29.1-108.2,38.5-156c4.8-24.6,27.1-176,27.1-176h460.5
				c0,0-4.2,123,8.8,207c4.5,29.2,17.8,72.7,20,121c2,44,1,113,1,113"/>
			<path class="st2" d="M694.8,1326c0,0,83.2-5.7,95.2-45c14-46-1-98-14-106s-47.3-15.9-47.3-15.9L716,1246L694.8,1326z"/>
			<path id="Body_Outline" class="st3" d="M669,1497.1c0,0,3-65,9-99.1c10-57,29.1-108.2,38.5-156c4.8-24.6,27.1-176,27.1-176h460.5
				c0,0-4.2,123,8.8,207c4.5,29.2,17.8,72.7,20,121c2,44,1,113,1,113"/>
		</g>
		<path id="Fat_line2" class="st3" d="M1191,1266c0,0,9.2,69.8,5,115c-5,54-1,126-1,126"/>
		<path id="Fat_line1" class="st3" d="M1034,1336c0,0,8.4,89,7.2,114s0,57,0,57"/>
		<g id="Neck_lade_">
			<path class="st4" d="M978,1242c191,0,249.5-106.1,249.5-106.1h-511C716.5,1135.9,716,1242,978,1242z"/>
			<circle class="st5" cx="988.5" cy="1242.5" r="38.5"/>
		</g>
	</g>
</g>
<g id="HEAD">
	<g id="Ear_BG">
		<path id="Ear_BG_line" class="st6" d="M960,594.7L1355,490c0,0,14.9,78.4,0,168c-13,78-66.8,241-374,241c-209,0-331,0-402-185
			c-42.4-110.5-14-196-14-196L960,594.7z"/>
		<rect id="Ear_RectBox" x="471" y="403" class="st0" width="994" height="509"/>
	</g>
	<g id="FACE_BG">
		<rect id="HEAD_Margin" x="357.5" y="253.4" class="st0" width="1228" height="1228"/>
		<path id="Face_Matte" class="st1" d="M1098.1,558c130.8,47.4,177.2,174.8,210.4,308.5c92,94,46.5,237.5-103,294
			c-95.7,36.2-264.6,46-386.5,24.5c-317-56-231.5-267.5-187.5-305.5c-10-80.4,64.8-240.3,204.6-308.7"/>
		<path class="st2" d="M1002,791l51,99l41.1-11.2L1177,867l83.4-1.5l63.1,18.5l-15-17.6c0,0-27.3-126.6-65.4-181.1
			S1153,536,975.5,538.5s-206.5,77-275,147.7s-69,193.3-69,193.3l129.2-25.7L823,867l72.9,6.3L925,890L1002,791z"/>
		<path class="st7" d="M999.3,694.5l36.5-151.8c0,0-45.9-4.8-67.9-4.2s-69,9.5-69,9.5L999.3,694.5z"/>
		<path class="st7" d="M836.3,570.7c0,0,10.7,45.3-58.3,136.3c-66.1,87.2-140.7,108.4-140.7,108.4s25.9-99.3,80.8-151.4
			S836.3,570.7,836.3,570.7z"/>
		<path class="st7" d="M1161,692l7-100c0,0,29,32.6,41.5,46.3s27.6,36.9,27.6,36.9L1161,692z"/>
		<polygon class="st7" points="1250,830 1277.6,761.8 1306,856.6 		"/>
		
			<radialGradient id="Pinky_L_00000080167700182010468310000010564924852134406789_" cx="1227.5" cy="2642" r="105.1" gradientTransform="matrix(1 0 0 -0.25 0 1661.55)" gradientUnits="userSpaceOnUse">
			<stop  offset="7.000000e-02" style="stop-color:#FBD5DB"/>
			<stop  offset="8.000000e-02" style="stop-color:#FBD3D9"/>
			<stop  offset="0.22" style="stop-color:#FBB9C3"/>
			<stop  offset="0.35" style="stop-color:#FBA9B5"/>
			<stop  offset="0.44" style="stop-color:#FBA3B0"/>
			<stop  offset="0.5" style="stop-color:#FBA3B0;stop-opacity:0.94"/>
			<stop  offset="0.6" style="stop-color:#FBA3B0;stop-opacity:0.78"/>
			<stop  offset="0.74" style="stop-color:#FBA3B0;stop-opacity:0.53"/>
			<stop  offset="0.91" style="stop-color:#FBA3B0;stop-opacity:0.19"/>
			<stop  offset="1" style="stop-color:#FBA3B0;stop-opacity:0"/>
		</radialGradient>
		
			<ellipse id="Pinky_L" style="fill:url(#Pinky_L_00000080167700182010468310000010564924852134406789_);" cx="1227.5" cy="1006" rx="102.5" ry="27"/>
		
			<radialGradient id="Pinky_R_00000098214794965604533800000004304613761610101693_" cx="716.5" cy="914" r="105.1" gradientTransform="matrix(1 0 0 -1 0 1920)" gradientUnits="userSpaceOnUse">
			<stop  offset="7.000000e-02" style="stop-color:#FBD5DB"/>
			<stop  offset="8.000000e-02" style="stop-color:#FBD3D9"/>
			<stop  offset="0.22" style="stop-color:#FBB9C3"/>
			<stop  offset="0.35" style="stop-color:#FBA9B5"/>
			<stop  offset="0.44" style="stop-color:#FBA3B0"/>
			<stop  offset="0.5" style="stop-color:#FBA3B0;stop-opacity:0.94"/>
			<stop  offset="0.6" style="stop-color:#FBA3B0;stop-opacity:0.78"/>
			<stop  offset="0.74" style="stop-color:#FBA3B0;stop-opacity:0.53"/>
			<stop  offset="0.91" style="stop-color:#FBA3B0;stop-opacity:0.19"/>
			<stop  offset="1" style="stop-color:#FBA3B0;stop-opacity:0"/>
		</radialGradient>
		
			<ellipse id="Pinky_R" style="fill:url(#Pinky_R_00000098214794965604533800000004304613761610101693_);" cx="716.5" cy="1006" rx="102.5" ry="27"/>
		<path id="Face_OutLine" class="st3" d="M1098.1,558c130.8,47.4,177.2,174.8,210.4,308.5c92,94,46.5,237.5-103,294
			c-95.7,36.2-264.6,46-386.5,24.5c-317-56-231.5-267.5-187.5-305.5c-10-80.4,64.8-240.3,204.6-308.7"/>
	</g>
	<g id="Ear_F_L">
		<path id="Ear_Color" class="st2" d="M1219,615c116.4-42.7,136-125,136-125l-291,77C1064,567,1069,670,1219,615z"/>
		<path id="Ear_Line" class="st3" d="M1340.6,521.8c0,0-32.6,50.2-83.6,76.2c-72.5,37-116.1,33.2-116.1,33.2"/>
		<rect id="Ear_RectBox-2" x="471" y="403" class="st0" width="994" height="509"/>
	</g>
	<g id="Ear_F_R">
		<path id="Ear_Color-2" class="st7" d="M710,636c-115.5-44.9-145-118-145-118l271,53C836,571,818,678,710,636z"/>
		<path id="Ear_Line-2" class="st3" d="M584.8,552.8c0,0,48.1,53.3,96.2,71.2c32.9,12.1,66.9,21.2,101.5,27"/>
		<rect id="Ear_RectBox-3" x="471" y="403" class="st0" width="994" height="509"/>
	</g>
	<g id="Ear_F_Mask">
		<path id="Face_BG-2" class="st3" d="M565,518l271.3,52.7c0,0,61.7-32.2,139.2-32.2s122.8,19.5,122.8,19.5l256.7-68"/>
		<rect id="HEAD_Margin-2" x="357.5" y="253.4" class="st0" width="1228" height="1228"/>
	</g>
	<g>
		<g id="Eye_L">
			<rect id="Eye_Box" x="995" y="747" class="st0" width="315" height="286"/>
			<path id="Eye_Matte" class="st1" d="M1041.6,876.4l212.6-56.7c0,0,13.8,29.3,12.8,59.3c-0.6,17.5-9,54-57,77
				c-32,15.3-86,19-131-6C1035.1,925.6,1041.6,876.4,1041.6,876.4z"/>
			<g>
				<defs>
					<path id="Eye_Matte_00000029037316341585141350000017463738161028914608_" d="M1041.6,876.4l212.6-56.7
						c0,0,13.8,29.3,12.8,59.3c-0.6,17.5-9,54-57,77c-32,15.3-86,19-131-6C1035.1,925.6,1041.6,876.4,1041.6,876.4z"/>
				</defs>
				<clipPath id="Eye_Matte_00000067947706538680808760000014485530080084427705_">
					<use xlink:href="#Eye_Matte_00000029037316341585141350000017463738161028914608_"  style="overflow:visible;"/>
				</clipPath>
				
					<circle id="EyeBall_L" style="clip-path:url(#Eye_Matte_00000067947706538680808760000014485530080084427705_);fill:#4D4D4D;stroke:#292929;stroke-width:10;stroke-miterlimit:10;" cx="1137" cy="845" r="39"/>
			</g>
			<path id="Eye_Outline" class="st3" d="M1041.6,876.4l212.6-56.7c0,0,13.8,29.3,12.8,59.3c-0.6,17.5-9,54-57,77
				c-32,15.3-86,19-131-6C1035.1,925.6,1041.6,876.4,1041.6,876.4z"/>
		</g>
	</g>
	<g>
		<g id="Eye_R">
			<rect id="Eye_Box-2" x="653" y="747" class="st0" width="315" height="286"/>
			<path id="Eye_Matte-2" class="st1" d="M921.5,876.4l-212.6-56.7c0,0-13.8,29.3-12.8,59.3c0.6,17.5,9,54,57,77
				c32,15.3,86,19,131-6C927.9,925.6,921.5,876.4,921.5,876.4z"/>
			<g>
				<defs>
					<path id="Eye_Matte-2_00000143577794458294326430000017116475782887046831_" d="M921.5,876.4l-212.6-56.7
						c0,0-13.8,29.3-12.8,59.3c0.6,17.5,9,54,57,77c32,15.3,86,19,131-6C927.9,925.6,921.5,876.4,921.5,876.4z"/>
				</defs>
				<clipPath id="Eye_Matte-2_00000137850034917449302530000009363773988149208212_">
					<use xlink:href="#Eye_Matte_x002D_2_00000143577794458294326430000017116475782887046831_"  style="overflow:visible;"/>
				</clipPath>
				
					<circle id="EyeBall_R" style="clip-path:url(#Eye_Matte-2_00000137850034917449302530000009363773988149208212_);fill:#4D4D4D;stroke:#292929;stroke-width:10;stroke-miterlimit:10;" cx="819" cy="845" r="39"/>
			</g>
			<path id="Eye_Outline-2" class="st3" d="M921.5,876.4l-212.6-56.7c0,0-13.8,29.3-12.8,59.3c0.6,17.5,9,54,57,77
				c32,15.3,86,19,131-6C927.9,925.6,921.5,876.4,921.5,876.4z"/>
		</g>
	</g>
	<line id="EyeBow_L" class="st12" x1="1050" y1="826" x2="1020.9" y2="856.6"/>
	<line id="EyeBow_R" class="st12" x1="951" y1="856.6" x2="929.8" y2="826"/>
	<path id="NOSE" class="st13" d="M969,904c2.1-5,30-6,33-3s-10,29-15,29S966,911,969,904z"/>
	<polyline id="Mouth" class="st3" points="955,1043 990,1001 1027,1039 	"/>
	<g id="Beard_L">
		<g id="B.1">
			<path class="st13" d="M1295,951c13.3-0.7,26.7-0.8,40-0.4s26.7,1.1,40,2.7c6.7,0.9,13.2,1.8,19.8,2.9s13.2,2.2,19.7,3.5
				c13.1,2.5,26.2,5.2,39.1,8.6c-13.3-1.3-26.5-3-39.7-4.7c-6.6-0.8-13.2-1.8-19.8-2.6s-13.2-1.8-19.7-2.6s-13.2-1.5-19.8-2
				s-13.2-1.1-19.9-1.7C1321.6,953.4,1308.3,952.3,1295,951z"/>
		</g>
		<g id="B.1-2">
			<path class="st13" d="M1295,989c8.6,1,17.1,2.5,25.6,4s16.9,3.4,25.3,5.5s16.7,4.4,25,7c4.1,1.2,8.2,2.8,12.3,4.2
				c4,1.6,8.1,3.1,12.1,5c15.7,7.4,30.8,15.7,45.8,24.2s29.7,17.5,44,27.1c-15.4-7.8-30.6-15.7-45.9-23.7
				c-7.7-3.9-15.2-7.9-22.9-11.8l-5.7-2.9l-5.8-2.9c-1.9-1-3.8-1.9-5.8-2.8c-1-0.5-1.9-1-2.9-1.4l-2.9-1.3c-3.8-1.8-7.8-3.4-11.7-5
				s-8-3-12.1-4.3s-8.1-2.7-12.2-4l-6.2-1.9c-2-0.7-4.1-1.3-6.2-1.8c-8.2-2.4-16.5-4.7-24.8-6.8C1311.7,993.2,1303.4,991.1,1295,989
				z"/>
		</g>
		<g id="B.1-3">
			<path class="st13" d="M1261,1033c15.1,5.9,29.7,12.9,43.8,20.9c7.1,3.9,14,8.3,20.7,12.9c3.4,2.2,6.6,4.8,9.9,7.2
				s6.4,5.1,9.4,7.7l18.4,15.6c6.1,5.3,12.3,10.4,18.4,15.7c12.2,10.5,24.4,21.1,36.4,32c-13.2-9.3-26.1-19-38.8-29
				c-6.4-4.9-12.7-10-19-15.1s-12.5-10.3-18.7-15.4c-3.1-2.7-6.1-5.2-9.2-7.7s-6.3-4.9-9.6-7.2s-6.5-4.6-9.8-6.9s-6.7-4.4-10.1-6.5
				C1289.2,1048.7,1275.2,1040.7,1261,1033z"/>
		</g>
	</g>
	<g id="Beard_R">
		<g id="B.1-4">
			<path class="st13" d="M637.5,960.5c-15.8,2.1-31.7,3.8-47.5,5.5l-23.7,2.5c-7.9,0.8-15.8,1.7-23.7,2.7c-1.9,0.3-3.9,0.5-5.8,0.9
				l-5.8,1l-11.7,2.3c-7.8,1.6-15.5,3.4-23.3,5.2l-46.5,11c15-5.5,30.2-10.3,45.6-14.6c7.7-2.2,15.4-4.2,23.2-6
				c7.8-1.8,15.6-3.5,23.7-4.6s15.9-1.8,23.9-2.5s15.9-1.2,23.9-1.7C605.6,961,621.5,960.5,637.5,960.5z"/>
		</g>
		<g id="B.1-5">
			<path class="st13" d="M669,988c-9.1,2.5-18.2,5-27.3,7.6s-18.1,5.4-27,8.3s-17.8,6-26.5,9.5c-8.7,3.3-17.3,7.1-25.5,11.5
				c-2.1,1-4.1,2.2-6.2,3.3s-4.1,2.3-6.2,3.4l-6.1,3.5l-6.1,3.5c-8.2,4.7-16.2,9.6-24.4,14.3c-16.2,9.7-32.4,19.4-48.7,28.9
				c15.2-11.3,30.8-22,46.6-32.2c15.8-10.2,31.9-20.2,48.7-29.2c8.5-4.4,17.2-8.2,26.2-11.5c8.9-3.3,18-6.2,27.1-8.8
				s18.3-4.9,27.5-7S659.6,989.4,669,988z"/>
		</g>
		<g id="B.1-6">
			<path class="st13" d="M682,1022c-15.9,8.5-31.5,17.3-46.7,26.8c-3.8,2.4-7.5,4.8-11.3,7.3s-7.4,5-11,7.7s-7.2,5.3-10.7,8
				s-6.9,5.6-10.3,8.6c-6.9,5.8-13.8,11.5-20.8,17.2c-7,5.6-14,11.3-21.1,16.8c-14.2,11.1-28.5,22-43.1,32.5
				c13.4-12.1,27-23.8,40.7-35.5l41.1-34.9c3.4-2.9,6.9-5.8,10.5-8.6s7.2-5.5,11-8c7.5-5.1,15.1-10,23-14.4
				C648.9,1036.5,665.2,1028.7,682,1022z"/>
		</g>
	</g>
</g>
<g id="HAND">
	<path id="Hand_Matte" class="st1" d="M795.6,1292.3c0,0,74.4-83.3,80.4-145.3c-15-11-24-65-16-75s20-6,34-1c5-24,23-58,33-55
		c15.4,4.6,13,29.4,21,47c23,14,70,44,65,109c-2.5,33,1,114-48,196c-23.3,39-67,82-129,82"/>
	<path id="Hand_Outline" class="st3" d="M795.6,1292.3c0,0,74.4-83.3,80.4-145.3c-15-11-24-65-16-75s20-6,34-1c5-24,23-58,33-55
		c15.4,4.6,13,29.4,21,47c23,14,70,44,65,109c-2.5,33,1,114-48,196c-23.3,39-67,82-129,82c-59,0-107-53.1-119-118s12-170,12-170"/>
</g>
</svg>
