<svg xmlns="http://www.w3.org/2000/svg" viewBox="0 0 4095.4 3605.1">
    <defs>
        <style>
            .cls-1 {
                fill: #2c45d1;
            }

            .cls-2 {
                fill: #b62fc2;
            }

            .cls-3 {
                fill: #de9f3a;
            }
        </style>
    </defs>
    <g id="Layer_2" data-name="Layer 2">
        <g id="Layer_1-2" data-name="Layer 1">
            <path id="S3" class="cls-1"
                d="M4095.4,2829c-1,7.2-1.8,14.4-2.9,21.5a303.54,303.54,0,0,1-30.3,93.7c-20.8,40.2-42.3,80.1-64.9,119.4q-150.6,261.6-302.1,522.7c-2.6,4.6-5.3,9-8.7,14.7L1607.4.3c5.7-.2,9.6-.3,13.4-.3h288q206,0,412,.1c61.2.1,119.7,13,175,39.5,78,37.5,138.3,94.2,181.5,169.1q73.2,126.75,146,253.8,494.4,858.3,988.8,1716.4,108,187.5,216.2,374.9c16.6,28.6,32.9,57.1,44.1,88.3a437.93,437.93,0,0,1,20.4,81.3c1.1,7.2,1.8,14.4,2.6,21.6v84Z" />
            <path id="S2" class="cls-2"
                d="M689.4,3605c-8.9-1.2-17.8-2.2-26.7-3.5C531.8,3583,432,3516.1,361.8,3405c-25.8-40.8-48.4-83.6-72.5-125.4C196,3118.1,0,2779.8,0,2779.8s1684.3.3,2517.5.3c19,0,14-2.4,23,13.2q231.75,401.1,463.3,802.3l5.5,9.5Z" />
            <path id="S1" class="cls-3"
                d="M341.7,2190.9l929-1606.4,923.9,1604.4a4.92,4.92,0,0,1-.6,1.7,1.37,1.37,0,0,1-.8.5q-922,.3-1843.9.5C347.4,2191.5,345.5,2191.2,341.7,2190.9Z" />
        </g>
    </g>
</svg>